<mxfile host="app.diagrams.net" agent="Mozilla/5.0 (Macintosh; Intel Mac OS X 10_15_7) AppleWebKit/537.36 (KHTML, like Gecko) Chrome/126.0.0.0 Whale/3.27.254.15 Safari/537.36" version="26.0.6">
  <diagram name="페이지-1" id="TpMk4SV4jNbYeq_rbaHF">
    <mxGraphModel dx="616" dy="1171" grid="1" gridSize="10" guides="1" tooltips="1" connect="1" arrows="1" fold="1" page="1" pageScale="1" pageWidth="1169" pageHeight="827" math="0" shadow="0">
      <root>
        <mxCell id="0" />
        <mxCell id="1" parent="0" />
        <mxCell id="Ak-W6qp5ohLVwJs3sLuC-1" value="" style="rounded=0;whiteSpace=wrap;html=1;" parent="1" vertex="1">
          <mxGeometry x="400" y="574" width="180" height="146" as="geometry" />
        </mxCell>
        <mxCell id="Nu1wtj4-nATQzFPG6_Lj-16" value="" style="rounded=0;whiteSpace=wrap;html=1;" parent="1" vertex="1">
          <mxGeometry x="400" y="224" width="180" height="190" as="geometry" />
        </mxCell>
        <mxCell id="Nu1wtj4-nATQzFPG6_Lj-1" value="" style="rounded=0;whiteSpace=wrap;html=1;" parent="1" vertex="1">
          <mxGeometry x="80" y="160" width="180" height="160" as="geometry" />
        </mxCell>
        <mxCell id="SJt1g9deCjwBGVB8re3M-4" style="rounded=0;orthogonalLoop=1;jettySize=auto;html=1;entryX=0;entryY=0.5;entryDx=0;entryDy=0;exitX=1;exitY=0.5;exitDx=0;exitDy=0;" parent="1" source="Nu1wtj4-nATQzFPG6_Lj-2" target="Nu1wtj4-nATQzFPG6_Lj-8" edge="1">
          <mxGeometry relative="1" as="geometry" />
        </mxCell>
        <mxCell id="Nu1wtj4-nATQzFPG6_Lj-2" value="consumer-1" style="rounded=1;whiteSpace=wrap;html=1;fillColor=#dae8fc;strokeColor=#6c8ebf;" parent="1" vertex="1">
          <mxGeometry x="110" y="210" width="120" height="30" as="geometry" />
        </mxCell>
        <mxCell id="SJt1g9deCjwBGVB8re3M-5" style="rounded=0;orthogonalLoop=1;jettySize=auto;html=1;entryX=0;entryY=0.5;entryDx=0;entryDy=0;exitX=1;exitY=0.5;exitDx=0;exitDy=0;" parent="1" source="Nu1wtj4-nATQzFPG6_Lj-3" target="SJt1g9deCjwBGVB8re3M-1" edge="1">
          <mxGeometry relative="1" as="geometry" />
        </mxCell>
        <mxCell id="Nu1wtj4-nATQzFPG6_Lj-3" value="consumer-2" style="rounded=1;whiteSpace=wrap;html=1;fillColor=#dae8fc;strokeColor=#6c8ebf;" parent="1" vertex="1">
          <mxGeometry x="110" y="240" width="120" height="30" as="geometry" />
        </mxCell>
        <mxCell id="SJt1g9deCjwBGVB8re3M-6" style="rounded=0;orthogonalLoop=1;jettySize=auto;html=1;entryX=0;entryY=0.5;entryDx=0;entryDy=0;exitX=1;exitY=0.5;exitDx=0;exitDy=0;" parent="1" source="Nu1wtj4-nATQzFPG6_Lj-4" target="SJt1g9deCjwBGVB8re3M-2" edge="1">
          <mxGeometry relative="1" as="geometry" />
        </mxCell>
        <mxCell id="Nu1wtj4-nATQzFPG6_Lj-4" value="consumer-3" style="rounded=1;whiteSpace=wrap;html=1;fillColor=#dae8fc;strokeColor=#6c8ebf;" parent="1" vertex="1">
          <mxGeometry x="110" y="270" width="120" height="30" as="geometry" />
        </mxCell>
        <mxCell id="Nu1wtj4-nATQzFPG6_Lj-6" value="group.id = order-group" style="text;html=1;align=center;verticalAlign=middle;whiteSpace=wrap;rounded=0;" parent="1" vertex="1">
          <mxGeometry x="80" y="170" width="180" height="30" as="geometry" />
        </mxCell>
        <mxCell id="Nu1wtj4-nATQzFPG6_Lj-8" value="partition-0&lt;div&gt;(espresso)&lt;/div&gt;" style="rounded=1;whiteSpace=wrap;html=1;fillColor=#d5e8d4;strokeColor=#82b366;" parent="1" vertex="1">
          <mxGeometry x="430" y="274" width="120" height="40" as="geometry" />
        </mxCell>
        <mxCell id="Nu1wtj4-nATQzFPG6_Lj-17" value="topic = order" style="text;html=1;align=center;verticalAlign=middle;whiteSpace=wrap;rounded=0;" parent="1" vertex="1">
          <mxGeometry x="420" y="234" width="140" height="30" as="geometry" />
        </mxCell>
        <mxCell id="SJt1g9deCjwBGVB8re3M-1" value="partition-1&lt;div&gt;(americano)&lt;/div&gt;" style="rounded=1;whiteSpace=wrap;html=1;fillColor=#d5e8d4;strokeColor=#82b366;" parent="1" vertex="1">
          <mxGeometry x="430" y="314" width="120" height="40" as="geometry" />
        </mxCell>
        <mxCell id="SJt1g9deCjwBGVB8re3M-2" value="partition-2&lt;div&gt;(latte)&lt;/div&gt;" style="rounded=1;whiteSpace=wrap;html=1;fillColor=#d5e8d4;strokeColor=#82b366;" parent="1" vertex="1">
          <mxGeometry x="430" y="354" width="120" height="40" as="geometry" />
        </mxCell>
        <mxCell id="Ak-W6qp5ohLVwJs3sLuC-2" value="partition-0&lt;div&gt;(coldbrew)&lt;/div&gt;" style="rounded=1;whiteSpace=wrap;html=1;fillColor=#d5e8d4;strokeColor=#82b366;" parent="1" vertex="1">
          <mxGeometry x="430" y="624" width="120" height="40" as="geometry" />
        </mxCell>
        <mxCell id="Ak-W6qp5ohLVwJs3sLuC-3" value="topic = coldbrew-order" style="text;html=1;align=center;verticalAlign=middle;whiteSpace=wrap;rounded=0;" parent="1" vertex="1">
          <mxGeometry x="420" y="584" width="140" height="30" as="geometry" />
        </mxCell>
        <mxCell id="Ak-W6qp5ohLVwJs3sLuC-4" value="partition-1&lt;div&gt;(coldbriew)&lt;/div&gt;" style="rounded=1;whiteSpace=wrap;html=1;fillColor=#d5e8d4;strokeColor=#82b366;" parent="1" vertex="1">
          <mxGeometry x="430" y="664" width="120" height="40" as="geometry" />
        </mxCell>
        <mxCell id="Jld8xgx-LlhoUwvwnqEl-1" value="" style="rounded=0;whiteSpace=wrap;html=1;" parent="1" vertex="1">
          <mxGeometry x="80" y="530" width="180" height="130" as="geometry" />
        </mxCell>
        <mxCell id="Jld8xgx-LlhoUwvwnqEl-7" style="rounded=0;orthogonalLoop=1;jettySize=auto;html=1;entryX=0;entryY=0.5;entryDx=0;entryDy=0;" parent="1" source="Jld8xgx-LlhoUwvwnqEl-2" target="Ak-W6qp5ohLVwJs3sLuC-2" edge="1">
          <mxGeometry relative="1" as="geometry" />
        </mxCell>
        <mxCell id="Jld8xgx-LlhoUwvwnqEl-2" value="consumer-1" style="rounded=1;whiteSpace=wrap;html=1;fillColor=#dae8fc;strokeColor=#6c8ebf;" parent="1" vertex="1">
          <mxGeometry x="110" y="580" width="120" height="30" as="geometry" />
        </mxCell>
        <mxCell id="Jld8xgx-LlhoUwvwnqEl-8" style="rounded=0;orthogonalLoop=1;jettySize=auto;html=1;entryX=0;entryY=0.5;entryDx=0;entryDy=0;" parent="1" source="Jld8xgx-LlhoUwvwnqEl-3" target="Ak-W6qp5ohLVwJs3sLuC-4" edge="1">
          <mxGeometry relative="1" as="geometry" />
        </mxCell>
        <mxCell id="Jld8xgx-LlhoUwvwnqEl-3" value="consumer-2" style="rounded=1;whiteSpace=wrap;html=1;fillColor=#dae8fc;strokeColor=#6c8ebf;" parent="1" vertex="1">
          <mxGeometry x="110" y="610" width="120" height="30" as="geometry" />
        </mxCell>
        <mxCell id="Jld8xgx-LlhoUwvwnqEl-6" value="group.id = coldbrew-order-group" style="text;html=1;align=center;verticalAlign=middle;whiteSpace=wrap;rounded=0;" parent="1" vertex="1">
          <mxGeometry x="80" y="540" width="180" height="30" as="geometry" />
        </mxCell>
        <mxCell id="VEIjop3Y4bKVjo4-xNuC-1" value="" style="rounded=0;whiteSpace=wrap;html=1;" vertex="1" parent="1">
          <mxGeometry x="80" y="334" width="180" height="160" as="geometry" />
        </mxCell>
        <mxCell id="VEIjop3Y4bKVjo4-xNuC-6" style="rounded=0;orthogonalLoop=1;jettySize=auto;html=1;entryX=0;entryY=0.5;entryDx=0;entryDy=0;exitX=1;exitY=0.5;exitDx=0;exitDy=0;" edge="1" parent="1" source="VEIjop3Y4bKVjo4-xNuC-2" target="Nu1wtj4-nATQzFPG6_Lj-8">
          <mxGeometry relative="1" as="geometry" />
        </mxCell>
        <mxCell id="VEIjop3Y4bKVjo4-xNuC-2" value="consumer-1" style="rounded=1;whiteSpace=wrap;html=1;fillColor=#dae8fc;strokeColor=#6c8ebf;" vertex="1" parent="1">
          <mxGeometry x="110" y="384" width="120" height="30" as="geometry" />
        </mxCell>
        <mxCell id="VEIjop3Y4bKVjo4-xNuC-7" style="rounded=0;orthogonalLoop=1;jettySize=auto;html=1;entryX=0;entryY=0.5;entryDx=0;entryDy=0;exitX=1;exitY=0.5;exitDx=0;exitDy=0;" edge="1" parent="1" source="VEIjop3Y4bKVjo4-xNuC-3" target="SJt1g9deCjwBGVB8re3M-1">
          <mxGeometry relative="1" as="geometry" />
        </mxCell>
        <mxCell id="VEIjop3Y4bKVjo4-xNuC-3" value="consumer-2" style="rounded=1;whiteSpace=wrap;html=1;fillColor=#dae8fc;strokeColor=#6c8ebf;" vertex="1" parent="1">
          <mxGeometry x="110" y="414" width="120" height="30" as="geometry" />
        </mxCell>
        <mxCell id="VEIjop3Y4bKVjo4-xNuC-8" style="rounded=0;orthogonalLoop=1;jettySize=auto;html=1;entryX=0;entryY=0.5;entryDx=0;entryDy=0;exitX=1;exitY=0.5;exitDx=0;exitDy=0;" edge="1" parent="1" source="VEIjop3Y4bKVjo4-xNuC-4" target="SJt1g9deCjwBGVB8re3M-2">
          <mxGeometry relative="1" as="geometry" />
        </mxCell>
        <mxCell id="VEIjop3Y4bKVjo4-xNuC-4" value="consumer-3" style="rounded=1;whiteSpace=wrap;html=1;fillColor=#dae8fc;strokeColor=#6c8ebf;" vertex="1" parent="1">
          <mxGeometry x="110" y="444" width="120" height="30" as="geometry" />
        </mxCell>
        <mxCell id="VEIjop3Y4bKVjo4-xNuC-5" value="group.id = monitor-group" style="text;html=1;align=center;verticalAlign=middle;whiteSpace=wrap;rounded=0;" vertex="1" parent="1">
          <mxGeometry x="80" y="344" width="180" height="30" as="geometry" />
        </mxCell>
        <mxCell id="VEIjop3Y4bKVjo4-xNuC-9" value="" style="rounded=0;whiteSpace=wrap;html=1;" vertex="1" parent="1">
          <mxGeometry x="80" y="680" width="180" height="130" as="geometry" />
        </mxCell>
        <mxCell id="VEIjop3Y4bKVjo4-xNuC-13" style="rounded=0;orthogonalLoop=1;jettySize=auto;html=1;entryX=0;entryY=0.5;entryDx=0;entryDy=0;" edge="1" parent="1" target="Ak-W6qp5ohLVwJs3sLuC-2">
          <mxGeometry relative="1" as="geometry">
            <mxPoint x="230" y="745" as="sourcePoint" />
          </mxGeometry>
        </mxCell>
        <mxCell id="VEIjop3Y4bKVjo4-xNuC-10" value="consumer-1" style="rounded=1;whiteSpace=wrap;html=1;fillColor=#dae8fc;strokeColor=#6c8ebf;" vertex="1" parent="1">
          <mxGeometry x="110" y="730" width="120" height="30" as="geometry" />
        </mxCell>
        <mxCell id="VEIjop3Y4bKVjo4-xNuC-14" style="rounded=0;orthogonalLoop=1;jettySize=auto;html=1;entryX=0;entryY=0.5;entryDx=0;entryDy=0;exitX=1;exitY=0.5;exitDx=0;exitDy=0;" edge="1" parent="1" source="VEIjop3Y4bKVjo4-xNuC-11" target="Ak-W6qp5ohLVwJs3sLuC-4">
          <mxGeometry relative="1" as="geometry" />
        </mxCell>
        <mxCell id="VEIjop3Y4bKVjo4-xNuC-11" value="consumer-2" style="rounded=1;whiteSpace=wrap;html=1;fillColor=#dae8fc;strokeColor=#6c8ebf;" vertex="1" parent="1">
          <mxGeometry x="110" y="760" width="120" height="30" as="geometry" />
        </mxCell>
        <mxCell id="VEIjop3Y4bKVjo4-xNuC-12" value="group.id = coldbrew-order-group" style="text;html=1;align=center;verticalAlign=middle;whiteSpace=wrap;rounded=0;" vertex="1" parent="1">
          <mxGeometry x="80" y="690" width="180" height="30" as="geometry" />
        </mxCell>
      </root>
    </mxGraphModel>
  </diagram>
</mxfile>
